<svg xmlns="http://www.w3.org/2000/svg" xmlns:xlink="http://www.w3.org/1999/xlink" version="1.1" id="Lager_1" x="0px" y="0px" viewBox="0 0 756.4 332.1" style="enable-background:new 0 0 756.4 332.1;" xml:space="preserve">
<path d="M205.7,84.7l-40.8,30.4c-19.2-16.6-44.1-19.8-57.8-19.8c-13.8,0-28.3,4-30.5,13.9c-2.2,9.6,6.8,17.1,22.2,21.3  c17.6,4.7,33.5,8.9,58.2,15.9c36.6,10.5,61.7,26.3,61.7,63c0,50.7-45,76.9-105.2,76.9S12.3,255,0,240.4l43.1-32.2  c30.3,26.4,51.3,30.1,68.9,30.1c20.2,0,39.1-4.3,41.5-15.7c2-9.2-5.6-16.5-22.8-20.5c-19.4-4.5-35.9-8.1-54.2-12.9  c-49.7-13-63.7-41.9-63.7-67.9c0-35.7,33.2-72.4,94.1-72.4C169.2,48.9,205.7,84.6,205.7,84.7 M465.6,52.5H283.8v227.1h185.1v-52.4  H347.6v-36.6h83.5v-50.1h-83.5v-36.2h117.9V52.5z M236.8,332h14.1V0h-14.1V332z M492.8,332h14.1V0h-14.1L492.8,332z M539.8,279.6  h146c39,0,70.7-23.5,70.7-61.2c0-29.4-19.2-48.9-46.2-57.5c-0.9-0.2-1.7-0.3-2.6-0.3c0.9-0.1,1.8-0.2,2.6-0.5  c15.5-6.1,32.5-22.4,32.5-50.1c0-35.2-31.1-57.6-69.5-57.6H539.7L539.8,279.6z M603.9,99.7h51c11.7,0,21.2,9.3,21.2,19.9  s-9.5,20-21.2,20h-51V99.7z M666.2,229.2h-62.4v-41.4h62.4c11,0,20,8.9,20,20.7C686.2,220.2,677.3,229.2,666.2,229.2z"/>
</svg>